<svg width="1024" height="1024" viewBox="0 0 1024 1024" fill="none" xmlns="http://www.w3.org/2000/svg">
<rect x="302" y="152" width="120" height="120" fill="white"/>
<rect x="302" y="602" width="120" height="120" fill="white"/>
<rect x="302" y="302" width="120" height="120" fill="white"/>
<rect x="152" y="302" width="120" height="120" fill="white"/>
<rect x="302" y="752" width="120" height="120" fill="white"/>
<rect x="302" y="452" width="120" height="120" fill="white"/>
<rect x="452" y="152" width="120" height="120" fill="white"/>
<rect x="452" y="602" width="120" height="120" fill="white"/>
<rect x="452" y="752" width="120" height="120" fill="white"/>
<rect x="482" y="332" width="60" height="60" fill="white"/>
<rect x="452" y="452" width="120" height="120" fill="white"/>
<rect x="602" y="152" width="120" height="120" fill="white"/>
<rect x="602" y="602" width="120" height="120" fill="white"/>
<rect x="632" y="332" width="60" height="60" fill="white"/>
<rect x="602" y="452" width="120" height="120" fill="white"/>
<rect x="752" y="602" width="120" height="120" fill="white"/>
<rect x="752" y="302" width="120" height="120" fill="white"/>
<rect x="752" y="452" width="120" height="120" fill="white"/>
<rect x="152" y="602" width="120" height="120" fill="white"/>
<rect x="152" y="452" width="120" height="120" fill="white"/>
<rect x="602" y="752" width="120" height="120" fill="white"/>
</svg>
